<svg width="64" height="64" viewBox="0 0 64 64" fill="none" xmlns="http://www.w3.org/2000/svg">
<path d="M56 6.5H46.29V4C46.29 3.60218 46.132 3.22064 45.8507 2.93934C45.5694 2.65804 45.1878 2.5 44.79 2.5C44.3922 2.5 44.0106 2.65804 43.7293 2.93934C43.448 3.22064 43.29 3.60218 43.29 4V6.5H33.5V4C33.5 3.60218 33.342 3.22064 33.0607 2.93934C32.7794 2.65804 32.3978 2.5 32 2.5C31.6022 2.5 31.2206 2.65804 30.9393 2.93934C30.658 3.22064 30.5 3.60218 30.5 4V6.5H20.71V4C20.71 3.60218 20.552 3.22064 20.2707 2.93934C19.9894 2.65804 19.6078 2.5 19.21 2.5C18.8122 2.5 18.4306 2.65804 18.1493 2.93934C17.868 3.22064 17.71 3.60218 17.71 4V6.5H8C6.54212 6.50264 5.14471 7.08295 4.11383 8.11383C3.08295 9.14471 2.50264 10.5421 2.5 12V56C2.50264 57.4579 3.08295 58.8553 4.11383 59.8862C5.14471 60.917 6.54212 61.4974 8 61.5H56C57.4579 61.4974 58.8553 60.917 59.8862 59.8862C60.917 58.8553 61.4974 57.4579 61.5 56V12C61.4974 10.5421 60.917 9.14471 59.8862 8.11383C58.8553 7.08295 57.4579 6.50264 56 6.5V6.5ZM8 9.5H17.71V12C17.71 12.3978 17.868 12.7794 18.1493 13.0607C18.4306 13.342 18.8122 13.5 19.21 13.5C19.6078 13.5 19.9894 13.342 20.2707 13.0607C20.552 12.7794 20.71 12.3978 20.71 12V9.5H30.5V12C30.5 12.3978 30.658 12.7794 30.9393 13.0607C31.2206 13.342 31.6022 13.5 32 13.5C32.3978 13.5 32.7794 13.342 33.0607 13.0607C33.342 12.7794 33.5 12.3978 33.5 12V9.5H43.29V12C43.29 12.3978 43.448 12.7794 43.7293 13.0607C44.0106 13.342 44.3922 13.5 44.79 13.5C45.1878 13.5 45.5694 13.342 45.8507 13.0607C46.132 12.7794 46.29 12.3978 46.29 12V9.5H56C56.663 9.5 57.2989 9.76339 57.7678 10.2322C58.2366 10.7011 58.5 11.337 58.5 12V19.28C55.7632 20.5725 52.802 21.323 49.78 21.49C46.9055 21.5572 44.0639 20.8675 41.54 19.49C38.6109 17.9181 35.3231 17.1358 32 17.22C28.6729 17.1395 25.3819 17.9252 22.45 19.5C19.928 20.8824 17.0851 21.5724 14.21 21.5C11.1906 21.3288 8.23294 20.575 5.5 19.28V12C5.5 11.337 5.76339 10.7011 6.23223 10.2322C6.70107 9.76339 7.33696 9.5 8 9.5V9.5ZM56 58.5H8C7.33696 58.5 6.70107 58.2366 6.23223 57.7678C5.76339 57.2989 5.5 56.663 5.5 56V22.6C8.20765 23.9254 11.1965 24.574 14.21 24.49C17.534 24.5711 20.8219 23.7853 23.75 22.21C26.277 20.8313 29.1222 20.1415 32 20.21C34.8745 20.1428 37.7161 20.8325 40.24 22.21C43.1681 23.7853 46.456 24.5711 49.78 24.49C52.7967 24.5736 55.7887 23.9251 58.5 22.6V56C58.5 56.663 58.2366 57.2989 57.7678 57.7678C57.2989 58.2366 56.663 58.5 56 58.5V58.5Z" fill="#ffffff" id="id_101"></path>
<path d="M19.86 28.5H12C11.6022 28.5 11.2206 28.658 10.9393 28.9393C10.658 29.2206 10.5 29.6022 10.5 30V37.86C10.5 38.2578 10.658 38.6394 10.9393 38.9207C11.2206 39.202 11.6022 39.36 12 39.36H19.86C20.2578 39.36 20.6394 39.202 20.9207 38.9207C21.202 38.6394 21.36 38.2578 21.36 37.86V30C21.36 29.6022 21.202 29.2206 20.9207 28.9393C20.6394 28.658 20.2578 28.5 19.86 28.5ZM18.36 36.36H13.5V31.5H18.36V36.36Z" fill="#ffffff" id="id_102"></path>
<path d="M35.9299 28.5H28.0699C27.6721 28.5 27.2906 28.658 27.0093 28.9393C26.728 29.2206 26.5699 29.6022 26.5699 30V37.86C26.5699 38.2578 26.728 38.6394 27.0093 38.9207C27.2906 39.202 27.6721 39.36 28.0699 39.36H35.9299C36.3278 39.36 36.7093 39.202 36.9906 38.9207C37.2719 38.6394 37.4299 38.2578 37.4299 37.86V30C37.4299 29.6022 37.2719 29.2206 36.9906 28.9393C36.7093 28.658 36.3278 28.5 35.9299 28.5ZM34.4299 36.36H29.5699V31.5H34.4299V36.36Z" fill="#ffffff" id="id_103"></path>
<path d="M52 28.5H44.14C43.7422 28.5 43.3607 28.658 43.0794 28.9393C42.798 29.2206 42.64 29.6022 42.64 30V37.86C42.64 38.2578 42.798 38.6394 43.0794 38.9207C43.3607 39.202 43.7422 39.36 44.14 39.36H52C52.3978 39.36 52.7794 39.202 53.0607 38.9207C53.342 38.6394 53.5 38.2578 53.5 37.86V30C53.5 29.6022 53.342 29.2206 53.0607 28.9393C52.7794 28.658 52.3978 28.5 52 28.5ZM50.5 36.36H45.64V31.5H50.5V36.36Z" fill="#ffffff" id="id_104"></path>
<path d="M19.86 43.6401H12C11.6022 43.6401 11.2206 43.7982 10.9393 44.0795C10.658 44.3608 10.5 44.7423 10.5 45.1401V53.0001C10.5 53.398 10.658 53.7795 10.9393 54.0608C11.2206 54.3421 11.6022 54.5001 12 54.5001H19.86C20.2578 54.5001 20.6394 54.3421 20.9207 54.0608C21.202 53.7795 21.36 53.398 21.36 53.0001V45.1401C21.36 44.7423 21.202 44.3608 20.9207 44.0795C20.6394 43.7982 20.2578 43.6401 19.86 43.6401ZM18.36 51.5001H13.5V46.6401H18.36V51.5001Z" fill="#ffffff" id="id_105"></path>
<path d="M35.9299 43.6401H28.0699C27.6721 43.6401 27.2906 43.7982 27.0093 44.0795C26.728 44.3608 26.5699 44.7423 26.5699 45.1401V53.0001C26.5699 53.398 26.728 53.7795 27.0093 54.0608C27.2906 54.3421 27.6721 54.5001 28.0699 54.5001H35.9299C36.3278 54.5001 36.7093 54.3421 36.9906 54.0608C37.2719 53.7795 37.4299 53.398 37.4299 53.0001V45.1401C37.4299 44.7423 37.2719 44.3608 36.9906 44.0795C36.7093 43.7982 36.3278 43.6401 35.9299 43.6401ZM34.4299 51.5001H29.5699V46.6401H34.4299V51.5001Z" fill="#ffffff" id="id_106"></path>
<path d="M52 43.6401H44.14C43.7422 43.6401 43.3607 43.7982 43.0794 44.0795C42.798 44.3608 42.64 44.7423 42.64 45.1401V53.0001C42.64 53.398 42.798 53.7795 43.0794 54.0608C43.3607 54.3421 43.7422 54.5001 44.14 54.5001H52C52.3978 54.5001 52.7794 54.3421 53.0607 54.0608C53.342 53.7795 53.5 53.398 53.5 53.0001V45.1401C53.5 44.7423 53.342 44.3608 53.0607 44.0795C52.7794 43.7982 52.3978 43.6401 52 43.6401ZM50.5 51.5001H45.64V46.6401H50.5V51.5001Z" fill="#ffffff" id="id_107"></path>
</svg>