<svg width="512" height="512" viewBox="0 0 512 512" fill="none" xmlns="http://www.w3.org/2000/svg">
<path d="M405.333 53.3331H362.667V42.6671C362.686 39.8532 362.149 37.0634 361.085 34.4582C360.022 31.8529 358.453 29.4839 356.47 27.4873C354.488 25.4908 352.129 23.9063 349.531 22.825C346.934 21.7437 344.147 21.187 341.333 21.187C338.52 21.187 335.733 21.7437 333.136 22.825C330.538 23.9063 328.179 25.4908 326.197 27.4873C324.214 29.4839 322.645 31.8529 321.582 34.4582C320.518 37.0634 319.981 39.8532 320 42.6671V53.3331H192V42.6671C192.019 39.8532 191.482 37.0634 190.418 34.4582C189.355 31.8529 187.786 29.4839 185.803 27.4873C183.821 25.4908 181.462 23.9063 178.864 22.825C176.267 21.7437 173.48 21.187 170.666 21.187C167.853 21.187 165.066 21.7437 162.469 22.825C159.871 23.9063 157.512 25.4908 155.53 27.4873C153.547 29.4839 151.978 31.8529 150.915 34.4582C149.851 37.0634 149.314 39.8532 149.333 42.6671V53.3331H106.667C89.6988 53.3516 73.4309 60.1004 61.4326 72.0987C49.4343 84.097 42.6855 100.365 42.667 117.333V405.333C42.6855 422.301 49.4343 438.569 61.4326 450.567C73.4309 462.566 89.6988 469.315 106.667 469.333H405.333C422.301 469.315 438.569 462.566 450.567 450.567C462.566 438.569 469.314 422.301 469.333 405.333V117.333C469.314 100.365 462.566 84.097 450.567 72.0987C438.569 60.1004 422.301 53.3516 405.333 53.3331V53.3331ZM85.333 117.333C85.3396 111.677 87.5894 106.255 91.5889 102.255C95.5884 98.256 101.011 96.0064 106.667 96.0001H149.333V106.667C149.372 112.3 151.636 117.689 155.633 121.658C159.629 125.627 165.034 127.855 170.666 127.855C176.299 127.855 181.704 125.627 185.7 121.658C189.697 117.689 191.961 112.3 192 106.667V96.0001H320V106.667C320.039 112.3 322.303 117.689 326.3 121.658C330.296 125.627 335.701 127.855 341.333 127.855C346.966 127.855 352.371 125.627 356.367 121.658C360.364 117.689 362.628 112.3 362.667 106.667V96.0001H405.333C410.989 96.0064 416.412 98.256 420.411 102.255C424.411 106.255 426.66 111.677 426.667 117.333V170.667H85.333V117.333ZM426.667 405.333C426.661 410.989 424.411 416.412 420.411 420.411C416.412 424.411 410.989 426.661 405.333 426.667H106.667C101.011 426.661 95.5881 424.411 91.5886 420.411C87.5891 416.412 85.3393 410.989 85.333 405.333V213.333H426.667V405.333Z" fill="#ffffff" id="id_101"></path>
<path d="M256 298.667H352C357.633 298.628 363.022 296.364 366.991 292.367C370.96 288.371 373.188 282.966 373.188 277.333C373.188 271.701 370.96 266.296 366.991 262.3C363.022 258.303 357.633 256.039 352 256H256C250.367 256.039 244.978 258.303 241.009 262.3C237.04 266.296 234.812 271.701 234.812 277.333C234.812 282.966 237.04 288.371 241.009 292.367C244.978 296.364 250.367 298.628 256 298.667V298.667Z" fill="#ebebeb" id="id_102"></path>
<path d="M160 384H352C357.633 383.961 363.022 381.697 366.991 377.7C370.96 373.704 373.188 368.299 373.188 362.667C373.188 357.034 370.96 351.629 366.991 347.633C363.022 343.636 357.633 341.372 352 341.333H160C154.367 341.372 148.978 343.636 145.009 347.633C141.04 351.629 138.812 357.034 138.812 362.667C138.812 368.299 141.04 373.704 145.009 377.7C148.978 381.697 154.367 383.961 160 384V384Z" fill="#e8e8e8" id="id_103"></path>
</svg>