<svg width="64" height="64" viewBox="0 0 64 64" fill="none" xmlns="http://www.w3.org/2000/svg">
<path d="M44 38H50C51.1 38 52 37.1 52 36V30C52 28.9 51.1 28 50 28H44C42.9 28 42 28.9 42 30V36C42 37.1 42.9 38 44 38ZM44 30H50V36H44V30Z" fill="#ffffff" id="id_101"></path>
<path d="M30 38H36C37.1 38 38 37.1 38 36V30C38 28.9 37.1 28 36 28H30C28.9 28 28 28.9 28 30V36C28 37.1 28.9 38 30 38ZM30 30H36V36H30V30Z" fill="#ffffff" id="id_102"></path>
<path d="M16 38H22C23.1 38 24 37.1 24 36V30C24 28.9 23.1 28 22 28H16C14.9 28 14 28.9 14 30V36C14 37.1 14.9 38 16 38ZM16 30H22V36H16V30Z" fill="#ffffff" id="id_103"></path>
<path d="M62 26V15C62 12.24 59.76 10 57 10H53H50V6C50 3.79 48.21 2 46 2C43.79 2 42 3.79 42 6V10H37V6C37 3.79 35.21 2 33 2C30.79 2 29 3.79 29 6V10H24V6C24 3.79 22.21 2 20 2C17.79 2 16 3.79 16 6V10H13C10.24 10 8 12.24 8 15V23V46H3C2.45 46 2 46.45 2 47V53C2 55.76 4.24 58 7 58H12V59C12 60.65 13.35 62 15 62H59C60.65 62 62 60.65 62 59V26ZM60 15V25H58V23V15L57.92 14.12C57.9 14.02 57.88 13.92 57.86 13.83L57.83 13.72C57.81 13.61 57.78 13.51 57.74 13.41L57.73 13.37C57.69 13.25 57.64 13.14 57.59 13.02C57.54 12.9 57.48 12.78 57.42 12.67C57.36 12.55 57.29 12.43 57.22 12.32C57.16 12.22 57.09 12.12 57.02 12.03C57.01 12.02 57.01 12.01 57 12C58.65 12 60 13.35 60 15ZM44 6C44 4.9 44.9 4 46 4C47.1 4 48 4.9 48 6V11V14C48 15.1 47.1 16 46 16C44.9 16 44 15.1 44 14V11V6ZM31 6C31 4.9 31.9 4 33 4C34.1 4 35 4.9 35 6V11V14C35 15.1 34.1 16 33 16C31.9 16 31 15.1 31 14V11V6ZM18 6C18 4.9 18.9 4 20 4C21.1 4 22 4.9 22 6V11V14C22 15.1 21.1 16 20 16C18.9 16 18 15.1 18 14V11V6ZM10 24H56V26V53C56 54.65 54.65 56 53 56C51.35 56 50 54.65 50 53V47C50 46.45 49.55 46 49 46H38V44C38 42.9 37.1 42 36 42H30C28.9 42 28 42.9 28 44V46H24V44C24 42.9 23.1 42 22 42H16C14.9 42 14 42.9 14 44V46H10V24ZM36 46H30V44H36V46ZM22 46H16V44H22V46ZM7 56C5.35 56 4 54.65 4 53V48H9H15H23H29H37H48V53C48 53.3 48.03 53.6 48.08 53.88C48.1 53.98 48.12 54.08 48.14 54.17C48.15 54.21 48.16 54.24 48.17 54.28C48.19 54.39 48.22 54.49 48.26 54.59C48.26 54.6 48.27 54.62 48.27 54.63C48.31 54.75 48.36 54.86 48.41 54.98C48.46 55.1 48.52 55.22 48.58 55.33C48.64 55.45 48.71 55.56 48.78 55.68C48.84 55.78 48.91 55.87 48.98 55.97C48.99 55.98 48.99 55.99 49 56H13H7V56Z" fill="#ffffff" id="id_104"></path>
</svg>