<?xml version="1.0" encoding="iso-8859-1"?>
<!-- Generator: Adobe Illustrator 16.0.0, SVG Export Plug-In . SVG Version: 6.00 Build 0)  -->
<!DOCTYPE svg PUBLIC "-//W3C//DTD SVG 1.1//EN" "http://www.w3.org/Graphics/SVG/1.1/DTD/svg11.dtd">
<svg version="1.1" id="Capa_1" xmlns="http://www.w3.org/2000/svg" xmlns:xlink="http://www.w3.org/1999/xlink" x="0px" y="0px"
	 width="330.853px" height="330.853px" viewBox="0 0 330.853 330.853" style="enable-background:new 0 0 330.853 330.853;"
	 xml:space="preserve">
<g>
	<path d="M277.656,31.186h-32.882v-17.96C244.774,5.921,238.854,0,231.552,0c-7.309,0-13.223,5.927-13.223,13.226v17.96h-17.63
		v-17.96C200.699,5.921,194.778,0,187.477,0c-7.314,0-13.223,5.927-13.223,13.226v17.96h-17.643v-17.96
		c0-7.305-5.92-13.226-13.226-13.226c-7.305,0-13.219,5.927-13.219,13.226v17.96h-17.642v-17.96C112.524,5.921,106.609,0,99.299,0
		c-7.305,0-13.22,5.927-13.22,13.226v17.96H53.182c-7.305,0-13.22,5.93-13.22,13.229V317.63c0,7.302,5.915,13.223,13.22,13.223
		h224.486c7.302,0,13.223-5.927,13.223-13.223V44.421C290.891,37.116,284.97,31.186,277.656,31.186z M165.412,271.453H99.293
		c-7.305,0-13.22-5.921-13.22-13.223s5.915-13.223,13.22-13.223h66.119c7.305,0,13.226,5.921,13.226,13.223
		C178.644,265.532,172.723,271.453,165.412,271.453z M231.552,227.365H99.293c-7.305,0-13.22-5.92-13.22-13.222
		s5.915-13.223,13.22-13.223h132.259c7.302,0,13.223,5.921,13.223,13.223S238.865,227.365,231.552,227.365z M231.552,183.291H99.293
		c-7.305,0-13.22-5.921-13.22-13.235c0-7.292,5.915-13.216,13.22-13.216h132.259c7.302,0,13.223,5.93,13.223,13.216
		C244.774,177.357,238.865,183.291,231.552,183.291z M231.552,139.2H99.293c-7.305,0-13.22-5.93-13.22-13.223
		c0-7.305,5.915-13.226,13.22-13.226h132.259c7.302,0,13.223,5.927,13.223,13.226C244.774,133.271,238.865,139.2,231.552,139.2z" fill='#fff'/>
</g>
<g>
</g>
<g>
</g>
<g>
</g>
<g>
</g>
<g>
</g>
<g>
</g>
<g>
</g>
<g>
</g>
<g>
</g>
<g>
</g>
<g>
</g>
<g>
</g>
<g>
</g>
<g>
</g>
<g>
</g>
</svg>
